<?xml version="1.0" encoding="UTF-8" standalone="no"?>
<!-- Generator: Adobe Illustrator 19.2.1, SVG Export Plug-In . SVG Version: 6.00 Build 0)  -->

<svg
   version="1.1"
   id="layer"
   x="0px"
   y="0px"
   viewBox="0 0 206.66666 206.66666"
   xml:space="preserve"
   sodipodi:docname="elastic-logo.svg"
   width="155pt"
   height="155pt"
   inkscape:version="1.3.2 (091e20ef0f, 2023-11-25)"
   xmlns:inkscape="http://www.inkscape.org/namespaces/inkscape"
   xmlns:sodipodi="http://sodipodi.sourceforge.net/DTD/sodipodi-0.dtd"
   xmlns="http://www.w3.org/2000/svg"
   xmlns:svg="http://www.w3.org/2000/svg"><defs
   id="defs924" /><sodipodi:namedview
   id="namedview922"
   pagecolor="#ffffff"
   bordercolor="#666666"
   borderopacity="1.0"
   inkscape:pageshadow="2"
   inkscape:pageopacity="0.0"
   inkscape:pagecheckerboard="0"
   showgrid="false"
   units="pt"
   inkscape:zoom="5.1104294"
   inkscape:cx="230.11765"
   inkscape:cy="75.531813"
   inkscape:window-width="3732"
   inkscape:window-height="2077"
   inkscape:window-x="108"
   inkscape:window-y="52"
   inkscape:window-maximized="1"
   inkscape:current-layer="layer"
   inkscape:document-units="pt"
   inkscape:showpageshadow="2"
   inkscape:deskcolor="#d1d1d1" />
<style
   type="text/css"
   id="style891">
	.st0{fill:#FFFFFF;}
	.st1{fill:#FED10A;}
	.st2{fill:#24BBB1;}
	.st3{fill:#EF5098;}
	.st4{fill:#17A8E0;}
	.st5{fill:#93C83E;}
	.st6{fill:#0779A1;}
</style>
<path
   class="st0"
   d="m 206.7565,108.74425 c 0,-17.300005 -10.7,-32.500005 -26.9,-38.300005 0.7,-3.7 1,-7.3 1,-11.1 0,-32.2 -26.2,-58.39999969 -58.3,-58.39999969 -18.9,0 -36.300002,8.99999979 -47.300002,24.19999969 -5.4,-4.2 -12,-6.5 -18.9,-6.5 -17.1,0 -31,13.9 -31,31 0,3.8 0.7,7.4 1.9,10.8 -16.1,5.8 -27.10000053,21.2 -27.10000053,38.400005 0,17.4 10.80000053,32.6 27.00000053,38.4 -0.7,3.6 -1,7.3 -1,11.1 0,32.1 26.1,58.2 58.2,58.2 18.900002,0 36.300002,-9.1 47.200002,-24.3 5.4,4.3 12,6.6 18.9,6.6 17.1,0 31,-13.9 31,-31 0,-3.8 -0.7,-7.4 -1.9,-10.8 16.2,-5.7 27.2,-21.1 27.2,-38.3"
   id="path893" />
<path
   class="st1"
   d="m 81.456498,89.544245 45.200002,20.600005 45.6,-40.000005 c 0.7,-3.3 1,-6.5 1,-10 0,-28.1 -22.9,-50.9999999 -51,-50.9999999 -16.8,0 -32.500002,8.2999999 -42.000002,22.1999999 l -7.6,39.3 z"
   id="path895" />
<path
   class="st2"
   d="m 34.656498,137.34425 c -0.7,3.3 -1,6.7 -1,10.2 0,28.2 23,51.1 51.1,51.1 16.900002,0 32.700002,-8.4 42.200002,-22.3 l 7.5,-39.2 -10,-19.2 -45.400002,-20.700005 z"
   id="path897" />
<path
   class="st3"
   d="m 34.456498,59.144245 31,7.3 6.8,-35.2 c -4.2,-3.2 -9.4,-5 -14.8,-5 -13.4,0 -24.4,10.9 -24.4,24.4 -0.1,3 0.4,5.9 1.4,8.5"
   id="path899" />
<path
   class="st4"
   d="m 31.756498,66.544245 c -13.8,4.5 -23.4999999,17.8 -23.4999999,32.399995 0,14.20001 8.7999999,26.90001 21.9999999,31.90001 l 43.4,-39.200005 -7.9,-17 z"
   id="path901" />
<path
   class="st5"
   d="m 134.9565,176.24425 c 4.3,3.2 9.4,5.1 14.7,5.1 13.4,0 24.4,-10.9 24.4,-24.4 0,-3 -0.5,-5.8 -1.5,-8.5 l -30.9,-7.2 z"
   id="path903" />
<path
   class="st6"
   d="m 141.2565,133.04425 34,7.9 c 13.9,-4.5 23.5,-17.8 23.5,-32.5 0,-14.100005 -8.8,-26.900005 -22,-31.900005 l -44.5,39.000005 z"
   id="path905" />







</svg>
